<mxfile host="app.diagrams.net" modified="2023-11-10T17:09:51.620Z" agent="Mozilla/5.0 (X11; Linux x86_64) AppleWebKit/537.36 (KHTML, like Gecko) Chrome/116.0.0.0 Safari/537.36" version="22.1.0" etag="1J0Uz59MtPDPYp6yUnlb" type="github">
  <diagram name="PÃ¡gina-1" id="PZsnEOT159gROg5EdwEW">
    <mxGraphModel>
      <root>
        <mxCell id="0" />
        <mxCell id="1" parent="0" />
      </root>
    </mxGraphModel>
  </diagram>
</mxfile>
